# xmcd CD database file
#
# Track frame offsets:
#	150
#	11931
#	18828
#	27874
#	40217
#	52135
#	58064
#	69304
#	79663
#	92671
#	104719
#	114273
#	125496
#	134965
#	144677
#
# Disc length: 2066 seconds
#
# Revision: 0
# Processed by: cddbd v1.5.1PL0 Copyright (c) Steve Scherf et al.
# Submitted via: CdAid (MTCDDB.DLL V2003.12.21)
#
DISCID=d908100f
DTITLE=Johnny Cash - Johnny Cash Collection Vol. 1
DYEAR=2003
DGENRE=Country
TTITLE0=Wide Open Road
TTITLE1=You're My Baby
TTITLE2=Two Timin' Woman
TTITLE3=Goodnight Irene
TTITLE4=Port of Lonely Hearts
TTITLE5=My Treasure
TTITLE6=Cry, Cry, Cry
TTITLE7=Hey, Porter
TTITLE8=Folsom Prison Blues
TTITLE9=So Doggone Lonesome
TTITLE10=Luther Played the Boogie
TTITLE11=Mean Eyed Cat
TTITLE12=I Couldn't Keep from Crying
TTITLE13=New Mexico
TTITLE14=Get Rythm
EXTD=Johnny Cash Collection Vol. 1: The Complete Sun Recordings in 4 Volumes I
EXTD=D3G:   2 YEAR: 2003
EXTT0=
EXTT1=
EXTT2=
EXTT3=
EXTT4=
EXTT5=
EXTT6=
EXTT7=
EXTT8=
EXTT9=
EXTT10=
EXTT11=
EXTT12=
EXTT13=
EXTT14=
PLAYORDER=
